<svg width="23" height="23" viewBox="0 0 23 23" fill="none" xmlns="http://www.w3.org/2000/svg">
<g id="Group 1517">
<g id="Rectangle" filter="url(#filter0_dd_4_6)">
<path d="M1 5C1 2.79086 2.79086 1 5 1H17C19.2091 1 21 2.79086 21 5V17C21 19.2091 19.2091 21 17 21H5C2.79086 21 1 19.2091 1 17V5Z" fill="url(#paint0_linear_4_6)"/>
</g>
<g id="Union" filter="url(#filter1_d_4_6)">
<path fill-rule="evenodd" clip-rule="evenodd" d="M16.7413 7.25831C16.3963 6.9139 15.8371 6.9139 15.4921 7.25831L9.85802 12.8838L6.50785 9.53877C6.16291 9.19436 5.60365 9.19436 5.25871 9.53877C4.91376 9.88319 4.91376 10.4416 5.25871 10.786L9.00613 14.5277C9.05746 14.5789 9.11353 14.6226 9.17293 14.6586C9.19539 14.6874 9.2199 14.7152 9.24644 14.7417C9.59138 15.0861 10.1506 15.0861 10.4956 14.7417L16.7413 8.50554C17.0862 8.16113 17.0862 7.60272 16.7413 7.25831Z" fill="white"/>
</g>
</g>
<defs>
<filter id="filter0_dd_4_6" x="0.8" y="0.8" width="22.2" height="22.2" filterUnits="userSpaceOnUse" color-interpolation-filters="sRGB">
<feFlood flood-opacity="0" result="BackgroundImageFix"/>
<feColorMatrix in="SourceAlpha" type="matrix" values="0 0 0 0 0 0 0 0 0 0 0 0 0 0 0 0 0 0 127 0" result="hardAlpha"/>
<feOffset dx="1" dy="1"/>
<feGaussianBlur stdDeviation="0.5"/>
<feColorMatrix type="matrix" values="0 0 0 0 0 0 0 0 0 0 0 0 0 0 0 0 0 0 0.2 0"/>
<feBlend mode="normal" in2="BackgroundImageFix" result="effect1_dropShadow_4_6"/>
<feColorMatrix in="SourceAlpha" type="matrix" values="0 0 0 0 0 0 0 0 0 0 0 0 0 0 0 0 0 0 127 0" result="hardAlpha"/>
<feOffset dx="0.4" dy="0.4"/>
<feGaussianBlur stdDeviation="0.3"/>
<feComposite in2="hardAlpha" operator="out"/>
<feColorMatrix type="matrix" values="0 0 0 0 0 0 0 0 0 0 0 0 0 0 0 0 0 0 0.2 0"/>
<feBlend mode="normal" in2="effect1_dropShadow_4_6" result="effect2_dropShadow_4_6"/>
<feBlend mode="normal" in="SourceGraphic" in2="effect2_dropShadow_4_6" result="shape"/>
</filter>
<filter id="filter1_d_4_6" x="4.8" y="6.8" width="13.2" height="9.2" filterUnits="userSpaceOnUse" color-interpolation-filters="sRGB">
<feFlood flood-opacity="0" result="BackgroundImageFix"/>
<feColorMatrix in="SourceAlpha" type="matrix" values="0 0 0 0 0 0 0 0 0 0 0 0 0 0 0 0 0 0 127 0" result="hardAlpha"/>
<feOffset dx="0.4" dy="0.4"/>
<feGaussianBlur stdDeviation="0.3"/>
<feComposite in2="hardAlpha" operator="out"/>
<feColorMatrix type="matrix" values="0 0 0 0 0 0 0 0 0 0 0 0 0 0 0 0 0 0 0.2 0"/>
<feBlend mode="normal" in2="BackgroundImageFix" result="effect1_dropShadow_4_6"/>
<feBlend mode="normal" in="SourceGraphic" in2="effect1_dropShadow_4_6" result="shape"/>
</filter>
<linearGradient id="paint0_linear_4_6" x1="11" y1="1" x2="11" y2="21" gradientUnits="userSpaceOnUse">
<stop stop-color="#5C5C5C"/>
<stop offset="1" stop-color="#292929"/>
</linearGradient>
</defs>
</svg>
