<svg width="14" height="20" viewBox="0 0 14 20" fill="none" xmlns="http://www.w3.org/2000/svg">
<g id="Reload button">
<path id="Refresh Page Data Button" d="M11.2493 18.5404C10.1099 19.4499 8.62454 20 7 20C3.41015 20 0.5 17.3137 0.5 14C0.5 10.6863 3.41015 8 7 8C10.5898 8 13.5 10.6863 13.5 14C13.5 15.2817 13.0646 16.4695 12.323 17.4444L10.25 14H12.2C12.2 11.349 9.87189 9.2 7 9.2C4.12812 9.2 1.8 11.349 1.8 14C1.8 16.651 4.12812 18.8 7 18.8C8.39763 18.8 9.66643 18.291 10.6009 17.463L11.2493 18.5404Z" fill="#4F4F4F"/>
</g>
</svg>
